<svg width="20" height="18" viewBox="0 0 20 18" fill="none" xmlns="http://www.w3.org/2000/svg">
<path fill-rule="evenodd" clip-rule="evenodd" d="M10.0989 0C10.4022 0 10.6794 0.171547 10.8148 0.442994L13.2544 5.33528L18.7124 6.11815C19.015 6.16154 19.2663 6.37351 19.3602 6.66436C19.4541 6.95522 19.374 7.27414 19.1539 7.48618L15.2036 11.2917L16.1347 16.6634C16.1867 16.9632 16.064 17.2665 15.8183 17.446C15.5726 17.6255 15.2463 17.65 14.9765 17.5093L10.1044 14.9684L5.22053 17.5097C4.95071 17.6501 4.62462 17.6253 4.37909 17.4458C4.13356 17.2663 4.01106 16.9631 4.06301 16.6634L4.99407 11.2917L1.04382 7.48618C0.823714 7.27414 0.743653 6.95522 0.837509 6.66436C0.931366 6.37351 1.18274 6.16154 1.48527 6.11815L6.94332 5.33528L9.38293 0.442994C9.51829 0.171547 9.79553 0 10.0989 0ZM10.0989 2.59269L8.188 6.42463C8.07078 6.65969 7.84566 6.82223 7.58566 6.85952L3.33271 7.46954L6.40984 10.4339C6.60103 10.6181 6.68839 10.8851 6.64306 11.1467L5.91548 15.3444L9.73554 13.3567C9.96722 13.2361 10.2432 13.2363 10.4747 13.357L14.2819 15.3426L13.5546 11.1467C13.5093 10.8851 13.5967 10.6181 13.7879 10.4339L16.865 7.46954L12.612 6.85952C12.352 6.82223 12.1269 6.65969 12.0097 6.42463L10.0989 2.59269Z" fill="white"/>
</svg>
